<svg width="688" height="679" viewBox="0 0 688 679" fill="none" xmlns="http://www.w3.org/2000/svg">
<g opacity="0.55">
<path d="M0 37.6986C0 16.8783 16.8783 0 37.6986 0H113.096C133.916 0 150.795 16.8783 150.795 37.6986V546.63C150.795 567.451 133.916 584.329 113.096 584.329H37.6986C16.8783 584.329 0 567.451 0 546.63V37.6986Z" fill="#0E10DE"/>
<path d="M216.767 47.1233C216.767 21.0978 237.865 0 263.89 0H480.658C595.17 0 688 92.8304 688 207.342V329.863C688 444.375 595.17 537.205 480.658 537.205H263.89C237.865 537.205 216.767 516.108 216.767 490.082V47.1233Z" fill="#0E10DE"/>
</g>
<path opacity="0.84" d="M75.3972 122.521C75.3972 96.4951 96.495 75.3973 122.521 75.3973H339.288C453.8 75.3973 546.63 168.228 546.63 282.74V471.233C546.63 585.745 453.8 678.575 339.288 678.575H122.521C96.495 678.575 75.3972 657.478 75.3972 631.452V122.521Z" fill="#0E10DE"/>
</svg>
