<svg width="1080" height="1080" viewBox="0 0 1080 1080" fill="none" xmlns="http://www.w3.org/2000/svg">
<g clip-path="url(#clip0_3765_1330)">
<circle cx="540" cy="540" r="540" fill="#202020"/>
<path d="M319.752 313.58C319.752 309.394 323.145 306 327.33 306H372.799C376.985 306 380.377 309.394 380.377 313.58V677.409C380.377 681.595 376.985 684.989 372.799 684.989H327.33C323.145 684.989 319.752 681.595 319.752 677.409V313.58Z" fill="#F8F8F8"/>
<path d="M380.345 571.288C380.345 634.081 329.452 684.985 266.672 684.985C203.893 684.985 153 634.081 153 571.288C153 508.495 203.893 457.592 266.672 457.592C329.452 457.592 380.345 508.495 380.345 571.288Z" fill="#F8F8F8"/>
<path d="M592.519 465.186C592.519 461 595.912 457.606 600.097 457.606H645.566C649.751 457.606 653.144 461 653.144 465.186V677.42C653.144 681.606 649.751 685 645.566 685H600.097C595.912 685 592.519 681.606 592.519 677.42V465.186Z" fill="#F8F8F8"/>
<path d="M653.195 571.303C653.195 634.096 602.302 685 539.523 685C476.743 685 425.85 634.096 425.85 571.303C425.85 508.51 476.743 457.607 539.523 457.607C602.302 457.607 653.195 508.51 653.195 571.303Z" fill="#F8F8F8"/>
<path d="M865.375 465.157C865.375 460.971 868.768 457.577 872.953 457.577H918.422C922.607 457.577 926 460.971 926 465.157V677.391C926 681.577 922.607 684.97 918.422 684.97H872.953C868.768 684.97 865.375 681.577 865.375 677.391V465.157Z" fill="#F8F8F8"/>
<path d="M925.968 571.273C925.968 634.066 875.075 684.97 812.295 684.97C749.516 684.97 698.623 634.066 698.623 571.273C698.623 508.48 749.516 457.576 812.295 457.576C875.075 457.576 925.968 508.48 925.968 571.273Z" fill="#F8F8F8"/>
</g>
<defs>
<clipPath id="clip0_3765_1330">
<rect width="1080" height="1080" fill="white"/>
</clipPath>
</defs>
</svg>
